<svg width="126" height="126" viewBox="0 0 126 126" fill="none" xmlns="http://www.w3.org/2000/svg">
<g filter="url(#filter0_d_120_165)">
<circle cx="63" cy="63" r="50" fill="white"/>
</g>
<path d="M79.3869 81.4966C71.5268 81.2963 70.4075 74.8501 63.5423 74.775C56.6771 74.6999 55.2345 81.3589 47.138 81.4966C42.5937 81.4933 38.2365 79.675 35.0232 76.441C31.8099 73.2071 30.0033 68.8218 30 64.2483C30 59.6738 31.8056 55.2866 35.0196 52.0519C38.2336 48.8172 42.5927 47 47.138 47H79.3869C81.637 47 83.8649 47.4462 85.9435 48.3132C88.0221 49.1802 89.9106 50.4509 91.501 52.0527C93.0914 53.6545 94.3527 55.556 95.2126 57.6486C96.0725 59.7412 96.5142 61.9838 96.5126 64.2483V64.2483C96.5126 68.8207 94.7087 73.2059 91.4974 76.4403C88.286 79.6746 83.9301 81.4933 79.3869 81.4966V81.4966Z" stroke="#2E2E3A" stroke-width="2" stroke-miterlimit="10"/>
<path d="M50.1478 60.3055H44.6009V54.7355H42.4244V60.3055H36.8776V62.5335H42.4244V68.091H44.6009V62.5335H50.1478V60.3055Z" stroke="#2E2E3A" stroke-miterlimit="10"/>
<path d="M83.0185 60.9939C84.7357 60.9939 86.1278 59.5929 86.1278 57.8647C86.1278 56.1365 84.7357 54.7355 83.0185 54.7355C81.3014 54.7355 79.9093 56.1365 79.9093 57.8647C79.9093 59.5929 81.3014 60.9939 83.0185 60.9939Z" stroke="#2E2E3A" stroke-miterlimit="10"/>
<path d="M76.3026 67.3775C78.0198 67.3775 79.4118 65.9765 79.4118 64.2482C79.4118 62.52 78.0198 61.119 76.3026 61.119C74.5854 61.119 73.1934 62.52 73.1934 64.2482C73.1934 65.9765 74.5854 67.3775 76.3026 67.3775Z" stroke="#2E2E3A" stroke-miterlimit="10"/>
<path d="M89.1499 67.3775C90.8671 67.3775 92.2591 65.9765 92.2591 64.2482C92.2591 62.52 90.8671 61.119 89.1499 61.119C87.4327 61.119 86.0406 62.52 86.0406 64.2482C86.0406 65.9765 87.4327 67.3775 89.1499 67.3775Z" stroke="#2E2E3A" stroke-miterlimit="10"/>
<path d="M83.0185 73.7487C84.7357 73.7487 86.1278 72.3477 86.1278 70.6195C86.1278 68.8912 84.7357 67.4902 83.0185 67.4902C81.3014 67.4902 79.9093 68.8912 79.9093 70.6195C79.9093 72.3477 81.3014 73.7487 83.0185 73.7487Z" stroke="#2E2E3A" stroke-miterlimit="10"/>
<path d="M60.2217 51.4059C60.7918 51.4059 61.254 50.9408 61.254 50.367C61.254 49.7933 60.7918 49.3281 60.2217 49.3281C59.6516 49.3281 59.1895 49.7933 59.1895 50.367C59.1895 50.9408 59.6516 51.4059 60.2217 51.4059Z" fill="#2E2E3A"/>
<path d="M66.4401 51.5436C67.0102 51.5436 67.4724 51.0785 67.4724 50.5047C67.4724 49.931 67.0102 49.4658 66.4401 49.4658C65.87 49.4658 65.4078 49.931 65.4078 50.5047C65.4078 51.0785 65.87 51.5436 66.4401 51.5436Z" fill="#2E2E3A"/>
<path d="M63.2563 51.5436C63.8264 51.5436 64.2885 51.0785 64.2885 50.5047C64.2885 49.931 63.8264 49.4658 63.2563 49.4658C62.6862 49.4658 62.224 49.931 62.224 50.5047C62.224 51.0785 62.6862 51.5436 63.2563 51.5436Z" fill="#2E2E3A"/>
<defs>
<filter id="filter0_d_120_165" x="0" y="0" width="126" height="126" filterUnits="userSpaceOnUse" color-interpolation-filters="sRGB">
<feFlood flood-opacity="0" result="BackgroundImageFix"/>
<feColorMatrix in="SourceAlpha" type="matrix" values="0 0 0 0 0 0 0 0 0 0 0 0 0 0 0 0 0 0 127 0" result="hardAlpha"/>
<feMorphology radius="5" operator="dilate" in="SourceAlpha" result="effect1_dropShadow_120_165"/>
<feOffset/>
<feGaussianBlur stdDeviation="4"/>
<feComposite in2="hardAlpha" operator="out"/>
<feColorMatrix type="matrix" values="0 0 0 0 0 0 0 0 0 0 0 0 0 0 0 0 0 0 0.25 0"/>
<feBlend mode="normal" in2="BackgroundImageFix" result="effect1_dropShadow_120_165"/>
<feBlend mode="normal" in="SourceGraphic" in2="effect1_dropShadow_120_165" result="shape"/>
</filter>
</defs>
</svg>
