<svg xmlns="http://www.w3.org/2000/svg" viewBox="0 0 31.59 77.04"><defs><style>.cls-1{fill:none;stroke-width:3px;}.cls-1,.cls-2{stroke:#2e2e3a;stroke-miterlimit:10;}.cls-2{fill:#2e2e3a;stroke-width:0.5px;}</style></defs><g id="Layer_2" data-name="Layer 2"><g id="Layer_3" data-name="Layer 3"><g id="Pencils"><path class="cls-1" d="M11.18,1.56h8.44a2,2,0,0,1,2,2V66a0,0,0,0,1,0,0H9.18a0,0,0,0,1,0,0V3.56a2,2,0,0,1,2-2Z" transform="matrix(0.97, -0.26, 0.26, 0.97, -8.22, 5.14)"/><path class="cls-1" d="M27.1,75l2.31-8.63L19.55,69l6.32,6.32A.73.73,0,0,0,27.1,75Z"/><rect class="cls-2" x="8.33" y="6.01" width="2.22" height="31.35" rx="1" transform="translate(-5.29 3.18) rotate(-15)"/></g></g></g></svg>