<svg xmlns="http://www.w3.org/2000/svg" viewBox="0 0 66.08 67.54"><defs><style>.cls-1{fill:#2e2e3a;}.cls-2{fill:none;stroke:#2e2e3a;stroke-miterlimit:10;stroke-width:3px;}</style></defs><g id="Layer_2" data-name="Layer 2"><g id="Layer_1-2" data-name="Layer 1"><path class="cls-1" d="M33,20.54a22,22,0,1,1-22,22,22,22,0,0,1,22-22m0-3a25,25,0,1,0,25,25,25,25,0,0,0-25-25Z"/><path class="cls-2" d="M47.71,24.11c-1.64.18,14.74-2.45,16.43.58,2.87,5.15-8.77,17.13-26,26.75S4.57,64.67,1.7,59.51C.21,56.84,7.59,47.8,9.54,45.59"/><path class="cls-1" d="M52.06,7l0,0h0c-1.12,2.53-3.17,4.07-4.71,3.47,1.47.57,1.95,2.9,1.21,5.37l0,.05a.07.07,0,0,0,.06,0c1.12-2.26,3-3.62,4.45-3.13v0C51.6,12.05,51.18,9.58,52.06,7Z"/><path class="cls-1" d="M58.43,9v0h0c-.94,1.42-2.36,2.13-3.25,1.59.85.52.92,2,.22,3.41,0,0,0,0,0,0h0c.92-1.26,2.21-1.88,3.06-1.42h0C57.64,12,57.63,10.42,58.43,9Z"/><path class="cls-1" d="M52.68,0V0h0C52.1,1.61,50.9,2.66,49.9,2.36c1,.28,1.38,1.69,1.06,3.25l0,0h0c.57-1.45,1.67-2.37,2.61-2.14h0C52.68,3.13,52.27,1.63,52.68,0Z"/><rect class="cls-1" x="47.96" y="22.25" width="5.15" height="2.86" transform="translate(-2.04 4.97) rotate(-5.52)"/></g></g></svg>