<svg width="1920" height="304" viewBox="0 0 1920 304" fill="none" xmlns="http://www.w3.org/2000/svg">
<path fill-rule="evenodd" clip-rule="evenodd" d="M0 238.979L46 199.335C91 159.691 183 80.4024 274 63.243C366 46.0836 457 91.6448 549 120.047C640 148.449 731 159.691 823 148.449C914 137.206 1006 102.887 1097 63.243C1189 23.5988 1280 -21.9625 1371 11.7647C1463 46.0836 1554 159.691 1646 188.093C1737 216.495 1829 159.691 1874 131.289L1920 102.887V321H1874C1829 321 1737 321 1646 321C1554 321 1463 321 1371 321C1280 321 1189 321 1097 321C1006 321 914 321 823 321C731 321 640 321 549 321C457 321 366 321 274 321C183 321 91 321 46 321H0V238.979Z" fill="url(#paint0_linear_2_22)"/>
<defs>
<linearGradient id="paint0_linear_2_22" x1="960" y1="0" x2="960" y2="321" gradientUnits="userSpaceOnUse">
<stop offset="0.276042" stop-color="#F5F5F5"/>
<stop offset="1" stop-color="#9ED0E6" stop-opacity="0"/>
</linearGradient>
</defs>
</svg>
