<svg width="1920" height="209" viewBox="0 0 1920 209" fill="none" xmlns="http://www.w3.org/2000/svg">
<path fill-rule="evenodd" clip-rule="evenodd" d="M0 87.7757L52.8 105.805C107.2 123.834 212.8 159.893 320 153.883C427.2 147.873 532.8 99.7952 640 87.7757C747.2 75.7562 852.8 99.7952 960 111.815C1067.2 123.834 1172.8 123.834 1280 99.7952C1387.2 75.7562 1492.8 27.6782 1600 9.64897C1707.2 -8.38028 1812.8 3.63922 1867.2 9.64897L1920 15.6587V228.627H1867.2C1812.8 228.627 1707.2 228.627 1600 228.627C1492.8 228.627 1387.2 228.627 1280 228.627C1172.8 228.627 1067.2 228.627 960 228.627C852.8 228.627 747.2 228.627 640 228.627C532.8 228.627 427.2 228.627 320 228.627C212.8 228.627 107.2 228.627 52.8 228.627H0V87.7757Z" fill="url(#paint0_linear_2_25)"/>
<defs>
<linearGradient id="paint0_linear_2_25" x1="960" y1="0.12677" x2="960" y2="228.627" gradientUnits="userSpaceOnUse">
<stop offset="0.473958" stop-color="#F5F5F5"/>
<stop offset="1" stop-color="#9ED0E6" stop-opacity="0.85"/>
<stop offset="1" stop-color="#9ED0E6" stop-opacity="0.85"/>
</linearGradient>
</defs>
</svg>
