<svg width="1920" height="465" viewBox="0 0 1920 465" fill="none" xmlns="http://www.w3.org/2000/svg">
<path fill-rule="evenodd" clip-rule="evenodd" d="M0 6.50509L35.2 26.5485C70.4 46.5918 142.4 86.6785 212.8 86.6785C284.8 86.6785 355.2 46.5918 427.2 22.5398C497.6 -1.51216 569.6 -9.52949 640 14.5225C710.4 38.5745 782.4 94.6958 852.8 122.756C924.8 150.817 995.2 150.817 1067.2 134.782C1137.6 118.748 1209.6 86.6785 1280 90.6872C1350.4 94.6958 1422.4 134.782 1492.8 146.808C1564.8 158.834 1635.2 142.8 1707.2 122.756C1777.6 102.713 1849.6 78.6612 1884.8 66.6352L1920 54.6092V485H1884.8C1849.6 485 1777.6 485 1707.2 485C1635.2 485 1564.8 485 1492.8 485C1422.4 485 1350.4 485 1280 485C1209.6 485 1137.6 485 1067.2 485C995.2 485 924.8 485 852.8 485C782.4 485 710.4 485 640 485C569.6 485 497.6 485 427.2 485C355.2 485 284.8 485 212.8 485C142.4 485 70.4 485 35.2 485H0V6.50509Z" fill="url(#paint0_linear_2_21)"/>
<defs>
<linearGradient id="paint0_linear_2_21" x1="960" y1="0" x2="960" y2="485" gradientUnits="userSpaceOnUse">
<stop offset="0.166667" stop-color="#F5F5F5"/>
<stop offset="1" stop-color="#9ED0E6"/>
</linearGradient>
</defs>
</svg>
